# xmcd
#
# Track frame offsets:
#	182
#	15637
#	36552
#	49465
#	61637
#	73240
#	84975
#	103850
#	127212
#	143855
#	167782
#	188025
#	204670
#
# Disc length: 2993 seconds
#
# Revision: 1
# Processed by: cddbd v1.5.2PL0 Copyright (c) Steve Scherf et al.
# Submitted via: EasyCDDAExtractor 10.0.2.1
#
DISCID=c40baf0d
DTITLE=The Larry Wise Band - Will O' The Wisp
DYEAR=1992
DGENRE=Blues
TTITLE0=Snappy Flappy
TTITLE1=Crosstown
TTITLE2=Cadillacs and Clothes
TTITLE3=Waitin' On You Baby
TTITLE4=Try To Go
TTITLE5=Move On Back
TTITLE6=Will O' The Wisp
TTITLE7=Dirty Ol' man
TTITLE8=Get On The Floor
TTITLE9=Country Boy
TTITLE10=Who's That Comin'
TTITLE11=Toredown
TTITLE12=Backstroke
EXTD=
EXTT0=
EXTT1=
EXTT2=
EXTT3=
EXTT4=
EXTT5=
EXTT6=
EXTT7=
EXTT8=
EXTT9=
EXTT10=
EXTT11=
EXTT12=
PLAYORDER=
